<mxfile host="app.diagrams.net" modified="2024-06-05T13:29:17.053Z" agent="Mozilla/5.0 (Windows NT 10.0; Win64; x64; rv:126.0) Gecko/20100101 Firefox/126.0" etag="ZoVOyg-Evr1FwB7645A8" version="24.4.13" type="device">
  <diagram name="Page-1" id="8G-TDpBrZnWFRdwxH2hP">
    <mxGraphModel dx="1050" dy="558" grid="0" gridSize="10" guides="1" tooltips="1" connect="1" arrows="1" fold="1" page="1" pageScale="1" pageWidth="827" pageHeight="1169" math="0" shadow="0">
      <root>
        <mxCell id="0" />
        <mxCell id="1" parent="0" />
        <mxCell id="J0_Lx2hSn_o62kDlmLEp-11" style="edgeStyle=orthogonalEdgeStyle;rounded=0;orthogonalLoop=1;jettySize=auto;html=1;entryX=1;entryY=0.5;entryDx=0;entryDy=0;" edge="1" parent="1" source="ctMj3vyAkk-ZHn5RQAny-1" target="J0_Lx2hSn_o62kDlmLEp-7">
          <mxGeometry relative="1" as="geometry" />
        </mxCell>
        <mxCell id="J0_Lx2hSn_o62kDlmLEp-14" style="edgeStyle=orthogonalEdgeStyle;rounded=0;orthogonalLoop=1;jettySize=auto;html=1;entryX=0.5;entryY=1;entryDx=0;entryDy=0;" edge="1" parent="1" source="ctMj3vyAkk-ZHn5RQAny-1" target="ctMj3vyAkk-ZHn5RQAny-10">
          <mxGeometry relative="1" as="geometry" />
        </mxCell>
        <mxCell id="J0_Lx2hSn_o62kDlmLEp-15" style="rounded=0;orthogonalLoop=1;jettySize=auto;html=1;exitX=0;exitY=0;exitDx=0;exitDy=0;entryX=1;entryY=1;entryDx=0;entryDy=0;" edge="1" parent="1" source="ctMj3vyAkk-ZHn5RQAny-1" target="J0_Lx2hSn_o62kDlmLEp-12">
          <mxGeometry relative="1" as="geometry" />
        </mxCell>
        <mxCell id="J0_Lx2hSn_o62kDlmLEp-18" style="edgeStyle=orthogonalEdgeStyle;rounded=0;orthogonalLoop=1;jettySize=auto;html=1;entryX=0.5;entryY=0;entryDx=0;entryDy=0;" edge="1" parent="1" source="ctMj3vyAkk-ZHn5RQAny-1" target="J0_Lx2hSn_o62kDlmLEp-17">
          <mxGeometry relative="1" as="geometry" />
        </mxCell>
        <mxCell id="J0_Lx2hSn_o62kDlmLEp-19" style="edgeStyle=orthogonalEdgeStyle;rounded=0;orthogonalLoop=1;jettySize=auto;html=1;" edge="1" parent="1" source="ctMj3vyAkk-ZHn5RQAny-1" target="J0_Lx2hSn_o62kDlmLEp-16">
          <mxGeometry relative="1" as="geometry" />
        </mxCell>
        <mxCell id="J0_Lx2hSn_o62kDlmLEp-22" style="rounded=0;orthogonalLoop=1;jettySize=auto;html=1;exitX=0;exitY=1;exitDx=0;exitDy=0;entryX=1;entryY=0;entryDx=0;entryDy=0;" edge="1" parent="1" source="ctMj3vyAkk-ZHn5RQAny-1" target="J0_Lx2hSn_o62kDlmLEp-20">
          <mxGeometry relative="1" as="geometry" />
        </mxCell>
        <mxCell id="ctMj3vyAkk-ZHn5RQAny-1" value="" style="ellipse;whiteSpace=wrap;html=1;" parent="1" vertex="1">
          <mxGeometry x="329" y="220" width="170" height="90" as="geometry" />
        </mxCell>
        <mxCell id="ctMj3vyAkk-ZHn5RQAny-2" value="&lt;font style=&quot;font-size: 10px;&quot; color=&quot;#000000&quot;&gt;ServerRegisterRemoteObject&lt;/font&gt;" style="ellipse;whiteSpace=wrap;html=1;movable=1;resizable=1;rotatable=1;deletable=1;editable=1;locked=0;connectable=1;fillColor=#A6A6A6;fontColor=#ffffff;strokeColor=#314354;" parent="1" vertex="1">
          <mxGeometry x="339" y="230" width="150" height="70" as="geometry" />
        </mxCell>
        <mxCell id="ctMj3vyAkk-ZHn5RQAny-10" value="registry" style="ellipse;whiteSpace=wrap;html=1;movable=1;resizable=1;rotatable=1;deletable=1;editable=1;locked=0;connectable=1;" parent="1" vertex="1">
          <mxGeometry x="339" y="65" width="150" height="70" as="geometry" />
        </mxCell>
        <mxCell id="J0_Lx2hSn_o62kDlmLEp-7" value="" style="ellipse;whiteSpace=wrap;html=1;" vertex="1" parent="1">
          <mxGeometry x="84" y="220" width="170" height="90" as="geometry" />
        </mxCell>
        <mxCell id="J0_Lx2hSn_o62kDlmLEp-8" value="LocateRegistry" style="ellipse;whiteSpace=wrap;html=1;movable=1;resizable=1;rotatable=1;deletable=1;editable=1;locked=0;connectable=1;" vertex="1" parent="1">
          <mxGeometry x="94" y="230" width="150" height="70" as="geometry" />
        </mxCell>
        <mxCell id="J0_Lx2hSn_o62kDlmLEp-12" value="" style="ellipse;whiteSpace=wrap;html=1;" vertex="1" parent="1">
          <mxGeometry x="126" y="86" width="170" height="90" as="geometry" />
        </mxCell>
        <mxCell id="J0_Lx2hSn_o62kDlmLEp-13" value="System" style="ellipse;whiteSpace=wrap;html=1;movable=1;resizable=1;rotatable=1;deletable=1;editable=1;locked=0;connectable=1;" vertex="1" parent="1">
          <mxGeometry x="136" y="96" width="150" height="70" as="geometry" />
        </mxCell>
        <mxCell id="J0_Lx2hSn_o62kDlmLEp-16" value="regEngine" style="ellipse;whiteSpace=wrap;html=1;movable=1;resizable=1;rotatable=1;deletable=1;editable=1;locked=0;connectable=1;" vertex="1" parent="1">
          <mxGeometry x="549" y="230" width="150" height="70" as="geometry" />
        </mxCell>
        <mxCell id="J0_Lx2hSn_o62kDlmLEp-17" value="regStub" style="ellipse;whiteSpace=wrap;html=1;movable=1;resizable=1;rotatable=1;deletable=1;editable=1;locked=0;connectable=1;" vertex="1" parent="1">
          <mxGeometry x="339" y="366" width="150" height="70" as="geometry" />
        </mxCell>
        <mxCell id="J0_Lx2hSn_o62kDlmLEp-20" value="" style="ellipse;whiteSpace=wrap;html=1;" vertex="1" parent="1">
          <mxGeometry x="116" y="340" width="170" height="90" as="geometry" />
        </mxCell>
        <mxCell id="J0_Lx2hSn_o62kDlmLEp-21" value="UnicastRemoteObject" style="ellipse;whiteSpace=wrap;html=1;movable=1;resizable=1;rotatable=1;deletable=1;editable=1;locked=0;connectable=1;" vertex="1" parent="1">
          <mxGeometry x="126" y="350" width="150" height="70" as="geometry" />
        </mxCell>
        <mxCell id="J0_Lx2hSn_o62kDlmLEp-23" style="rounded=0;orthogonalLoop=1;jettySize=auto;html=1;" edge="1" parent="1">
          <mxGeometry relative="1" as="geometry">
            <mxPoint x="729" y="168" as="sourcePoint" />
            <mxPoint x="672" y="230" as="targetPoint" />
          </mxGeometry>
        </mxCell>
        <mxCell id="J0_Lx2hSn_o62kDlmLEp-24" value="&lt;b&gt;1&lt;/b&gt;" style="text;html=1;align=center;verticalAlign=middle;resizable=0;points=[];autosize=1;strokeColor=none;fillColor=none;" vertex="1" parent="1">
          <mxGeometry x="305" y="236" width="24" height="26" as="geometry" />
        </mxCell>
        <mxCell id="J0_Lx2hSn_o62kDlmLEp-26" value="&lt;b&gt;3&lt;/b&gt;" style="text;html=1;align=center;verticalAlign=middle;resizable=0;points=[];autosize=1;strokeColor=none;fillColor=none;" vertex="1" parent="1">
          <mxGeometry x="344" y="200" width="24" height="26" as="geometry" />
        </mxCell>
        <mxCell id="J0_Lx2hSn_o62kDlmLEp-27" value="&lt;b&gt;2&lt;/b&gt;" style="text;html=1;align=center;verticalAlign=middle;resizable=0;points=[];autosize=1;strokeColor=none;fillColor=none;" vertex="1" parent="1">
          <mxGeometry x="417" y="194" width="24" height="26" as="geometry" />
        </mxCell>
        <mxCell id="J0_Lx2hSn_o62kDlmLEp-28" value="&lt;b&gt;4&lt;/b&gt;" style="text;html=1;align=center;verticalAlign=middle;resizable=0;points=[];autosize=1;strokeColor=none;fillColor=none;" vertex="1" parent="1">
          <mxGeometry x="339" y="296" width="24" height="26" as="geometry" />
        </mxCell>
        <mxCell id="J0_Lx2hSn_o62kDlmLEp-29" value="&lt;b&gt;5&lt;/b&gt;" style="text;html=1;align=center;verticalAlign=middle;resizable=0;points=[];autosize=1;strokeColor=none;fillColor=none;" vertex="1" parent="1">
          <mxGeometry x="417" y="307" width="24" height="26" as="geometry" />
        </mxCell>
        <mxCell id="J0_Lx2hSn_o62kDlmLEp-31" value="&lt;b&gt;5&lt;/b&gt;" style="text;html=1;align=center;verticalAlign=middle;resizable=0;points=[];autosize=1;strokeColor=none;fillColor=none;" vertex="1" parent="1">
          <mxGeometry x="507" y="238" width="24" height="26" as="geometry" />
        </mxCell>
        <mxCell id="J0_Lx2hSn_o62kDlmLEp-32" value="&lt;b&gt;6&lt;/b&gt;" style="text;html=1;align=center;verticalAlign=middle;resizable=0;points=[];autosize=1;strokeColor=none;fillColor=none;" vertex="1" parent="1">
          <mxGeometry x="715" y="186" width="24" height="26" as="geometry" />
        </mxCell>
      </root>
    </mxGraphModel>
  </diagram>
</mxfile>
